<?xml version="1.0" encoding="utf-8"?>
<!-- Generator: Adobe Illustrator 23.0.4, SVG Export Plug-In . SVG Version: 6.00 Build 0)  -->
<svg version="1.1" id="Layer_1" xmlns="http://www.w3.org/2000/svg" xmlns:xlink="http://www.w3.org/1999/xlink" x="0px" y="0px"
	 viewBox="0 0 412 117" style="enable-background:new 0 0 412 117;" xml:space="preserve">
<style type="text/css">
	.st0{fill:#263237;}
	.st1{clip-path:url(#SVGID_2_);fill:#EEF1F5;}
	.st2{fill:#EF534A;}
	.st3{fill:#EDC049;}
	.st4{fill:#97D272;}
	.st5{enable-background:new    ;}
	.st6{fill:#E5E5E5;}
	.st7{fill:#4B646D;}
</style>
<g>
	<rect y="20" class="st0" width="412" height="97"/>
	<g>
		<g>
			<defs>
				<path id="SVGID_1_" d="M405.6,32H6.4C2.9,32,0,29.1,0,25.6V6.4C0,2.9,2.9,0,6.4,0h399.3c3.5,0,6.4,2.9,6.4,6.4v19.3
					C412,29.1,409.1,32,405.6,32z"/>
			</defs>
			<clipPath id="SVGID_2_">
				<use xlink:href="#SVGID_1_"  style="overflow:visible;"/>
			</clipPath>
			<rect x="-3.8" y="-2.5" class="st1" width="419.5" height="22"/>
		</g>
	</g>
	<g>
		<circle class="st2" cx="11.5" cy="10" r="3.5"/>
		<circle class="st3" cx="20" cy="10" r="3.5"/>
		<circle class="st4" cx="28.5" cy="10" r="3.5"/>
	</g>
	<g>
		<g class="st5">
			<path class="st6" d="M19.4,76.1l4.3-8.7h1l-4.3,8.7H19.4z"/>
			<path class="st6" d="M29.2,70c0.5,0,1,0.1,1.5,0.4c0.4,0.3,0.8,0.6,1,1.1c0.2,0.5,0.4,1,0.4,1.5c0,0.6-0.1,1.1-0.4,1.5
				c-0.2,0.5-0.6,0.8-1,1.1s-0.9,0.4-1.5,0.4c-0.4,0-0.8-0.1-1.2-0.3c-0.4-0.2-0.7-0.4-0.9-0.7V76H25v-1h1v-6.3h-1v-1h2.1V71
				C27.7,70.3,28.4,70,29.2,70z M29,75c0.4,0,0.7-0.1,1-0.3c0.3-0.2,0.5-0.5,0.7-0.8c0.2-0.3,0.2-0.7,0.2-1c0-0.4-0.1-0.7-0.2-1
				c-0.2-0.3-0.4-0.5-0.7-0.7c-0.3-0.2-0.6-0.3-1-0.3s-0.7,0.1-1,0.3c-0.3,0.2-0.5,0.4-0.7,0.7c-0.2,0.3-0.2,0.7-0.2,1
				c0,0.4,0.1,0.7,0.2,1c0.2,0.3,0.4,0.5,0.7,0.7C28.3,75,28.7,75,29,75z"/>
			<path class="st6" d="M35.7,74.9v1h-2.9v-1h0.9v-3.8h-0.9v-1h2.1v4.8H35.7z M34.9,68.2c0,0.2-0.1,0.4-0.2,0.5
				c-0.1,0.1-0.3,0.2-0.5,0.2c-0.2,0-0.3-0.1-0.5-0.2c-0.1-0.1-0.2-0.3-0.2-0.5c0-0.2,0.1-0.4,0.2-0.5s0.3-0.2,0.5-0.2
				c0.2,0,0.4,0.1,0.5,0.2S34.9,68,34.9,68.2z"/>
			<path class="st6" d="M41.9,72v2.9h1v1h-2.1v-3.8c0-0.4-0.1-0.6-0.2-0.8c-0.1-0.2-0.3-0.2-0.5-0.2c-0.5,0-1.1,0.3-1.7,0.8v3.1h1v1
				h-3.2v-1h1v-3.8h-1v-1h2.2v0.7c0.7-0.5,1.4-0.8,2-0.8c0.5,0,0.9,0.2,1.2,0.5C41.8,70.9,41.9,71.4,41.9,72z"/>
			<path class="st6" d="M43.2,76.1l4.3-8.7h1l-4.3,8.7H43.2z"/>
			<path class="st6" d="M53,70c0.5,0,1,0.1,1.5,0.4c0.4,0.3,0.8,0.6,1,1.1c0.2,0.5,0.4,1,0.4,1.5c0,0.6-0.1,1.1-0.4,1.5
				c-0.2,0.5-0.6,0.8-1,1.1s-0.9,0.4-1.5,0.4c-0.4,0-0.8-0.1-1.2-0.3c-0.4-0.2-0.7-0.4-0.9-0.7V76h-2.1v-1h1v-6.3h-1v-1h2.1V71
				C51.5,70.3,52.2,70,53,70z M52.8,75c0.4,0,0.7-0.1,1-0.3c0.3-0.2,0.5-0.5,0.7-0.8c0.2-0.3,0.2-0.7,0.2-1c0-0.4-0.1-0.7-0.2-1
				c-0.2-0.3-0.4-0.5-0.7-0.7c-0.3-0.2-0.6-0.3-1-0.3s-0.7,0.1-1,0.3c-0.3,0.2-0.5,0.4-0.7,0.7c-0.2,0.3-0.2,0.7-0.2,1
				c0,0.4,0.1,0.7,0.2,1c0.2,0.3,0.4,0.5,0.7,0.7C52.1,75,52.4,75,52.8,75z"/>
			<path class="st6" d="M61.6,72.2v2.7h1v1h-2v-0.7c-0.6,0.5-1.2,0.8-1.8,0.8c-0.4,0-0.7-0.1-1-0.2c-0.3-0.2-0.5-0.4-0.7-0.7
				c-0.2-0.3-0.3-0.6-0.3-0.9c0-0.4,0.1-0.7,0.3-1c0.2-0.3,0.5-0.5,0.8-0.7c0.3-0.2,0.7-0.2,1-0.2c0.6,0,1.1,0.2,1.6,0.5v-0.6
				c0-0.5-0.1-0.8-0.3-1C60,71,59.7,71,59.3,71c-0.3,0-0.6,0.1-0.8,0.2c-0.2,0.1-0.4,0.3-0.5,0.5l-1.1-0.3c0.2-0.5,0.6-0.8,1-1
				c0.4-0.2,0.9-0.3,1.5-0.3c0.8,0,1.3,0.2,1.7,0.5S61.6,71.4,61.6,72.2z M58.9,75.2c0.6,0,1.1-0.2,1.6-0.7v-0.7
				c-0.5-0.4-1-0.6-1.5-0.6c-0.3,0-0.6,0.1-0.8,0.3s-0.3,0.4-0.3,0.7c0,0.3,0.1,0.5,0.3,0.7S58.6,75.2,58.9,75.2z"/>
			<path class="st6" d="M66.8,70.4v-0.2h1v1.9h-1v-0.4C66.4,71.2,66,71,65.4,71c-0.3,0-0.6,0.1-0.7,0.2s-0.3,0.3-0.3,0.5
				c0,0.2,0.1,0.3,0.2,0.4c0.1,0.1,0.5,0.2,1,0.3l0.8,0.1c1.1,0.2,1.7,0.8,1.7,1.7c0,0.5-0.2,1-0.6,1.3c-0.4,0.3-1,0.5-1.7,0.5
				c-0.3,0-0.5,0-0.8-0.1c-0.3-0.1-0.5-0.2-0.7-0.3V76h-1v-2h1v0.2c0.1,0.3,0.2,0.5,0.5,0.7c0.3,0.2,0.6,0.3,0.9,0.3
				c0.4,0,0.7-0.1,0.9-0.2c0.2-0.1,0.3-0.3,0.3-0.6c0-0.2-0.1-0.3-0.3-0.4c-0.2-0.1-0.5-0.2-1-0.3L65,73.5c-0.6-0.1-1-0.3-1.3-0.6
				c-0.3-0.3-0.4-0.7-0.4-1.1c0-0.4,0.1-0.7,0.3-0.9s0.5-0.4,0.8-0.6c0.3-0.1,0.6-0.2,1-0.2C65.9,70.1,66.4,70.2,66.8,70.4z"/>
			<path class="st6" d="M72.8,70c1.1,0,1.6,0.6,1.6,1.8v3.2h1v1h-2.1v-3.8c0-0.4-0.1-0.7-0.2-0.9S72.8,71,72.6,71
				c-0.4,0-1,0.2-1.7,0.7v3.2h1v1h-3.2v-1h1v-6.3h-1v-1h2.2v3.2C71.6,70.3,72.2,70,72.8,70z"/>
			<path class="st6" d="M76.7,71.6v-1.5h1.5v1.5H76.7z M76.7,76v-1.5h1.5V76H76.7z"/>
		</g>
		<g class="st5">
			<path class="st7" d="M11.6,71.3c0.2,0.1,0.4,0.2,0.6,0.3c0.2,0.1,0.3,0.1,0.4,0.1c0.4,0,0.9-0.2,1.3-0.7v1.2
				c-0.5,0.4-1,0.6-1.4,0.6c-0.2,0-0.4,0-0.6-0.1c-0.2-0.1-0.4-0.2-0.7-0.3c-0.2-0.1-0.4-0.2-0.6-0.3S10.4,72,10.3,72
				c-0.4,0-0.9,0.2-1.4,0.7v-1.1c0.5-0.4,1-0.6,1.5-0.6c0.2,0,0.3,0,0.5,0.1C11.1,71.1,11.3,71.2,11.6,71.3z"/>
		</g>
	</g>
	<g>
		<g class="st5">
			<path class="st7" d="M11.6,45.3c0.2,0.1,0.4,0.2,0.6,0.3c0.2,0.1,0.3,0.1,0.4,0.1c0.4,0,0.9-0.2,1.3-0.7v1.2
				c-0.5,0.4-1,0.6-1.4,0.6c-0.2,0-0.4,0-0.6-0.1c-0.2-0.1-0.4-0.2-0.7-0.3c-0.2-0.1-0.4-0.2-0.6-0.3S10.4,46,10.3,46
				c-0.4,0-0.9,0.2-1.4,0.7v-1.1c0.5-0.4,1-0.6,1.5-0.6c0.2,0,0.3,0,0.5,0.1C11.1,45.1,11.3,45.2,11.6,45.3z"/>
		</g>
	</g>
</g>
<g>
	<path class="st6" d="M24.7,45.3v-0.8h2.2v1h-1.1v4.4c0,1-0.3,1.8-0.8,2.3S23.8,53,22.9,53c-0.9,0-1.7-0.3-2.4-0.8l0.7-0.8
		c0.3,0.2,0.5,0.3,0.8,0.4c0.3,0.1,0.6,0.1,0.9,0.1c0.6,0,1-0.2,1.4-0.5c0.3-0.4,0.5-0.8,0.5-1.4v-0.5c-0.3,0.3-0.6,0.5-1,0.7
		s-0.8,0.3-1.2,0.3c-0.5,0-1-0.1-1.5-0.4c-0.4-0.3-0.8-0.6-1-1.1s-0.4-0.9-0.4-1.5c0-0.5,0.1-1.1,0.4-1.5c0.3-0.5,0.6-0.8,1-1.1
		s0.9-0.4,1.5-0.4c0.4,0,0.7,0.1,1.1,0.2S24.4,45,24.7,45.3z M22.8,49.4c0.4,0,0.7-0.1,1-0.3s0.5-0.4,0.7-0.7c0.2-0.3,0.2-0.6,0.2-1
		c0-0.3-0.1-0.7-0.2-1c-0.2-0.3-0.4-0.6-0.7-0.7c-0.3-0.2-0.6-0.3-1-0.3c-0.3,0-0.7,0.1-0.9,0.3s-0.5,0.4-0.7,0.7
		c-0.2,0.3-0.2,0.6-0.2,1c0,0.4,0.1,0.7,0.2,1s0.4,0.5,0.6,0.7C22.2,49.3,22.5,49.4,22.8,49.4z"/>
	<path class="st6" d="M33.6,47.4c0,0.6-0.1,1.1-0.4,1.6c-0.3,0.5-0.6,0.8-1.1,1.1c-0.5,0.3-1,0.4-1.5,0.4c-0.6,0-1.1-0.1-1.6-0.4
		c-0.5-0.3-0.8-0.6-1.1-1.1s-0.4-1-0.4-1.6c0-0.6,0.1-1.1,0.4-1.6s0.6-0.8,1.1-1.1c0.5-0.3,1-0.4,1.6-0.4c0.6,0,1.1,0.1,1.6,0.4
		c0.5,0.3,0.8,0.7,1.1,1.1S33.6,46.8,33.6,47.4z M30.5,49.3c0.3,0,0.7-0.1,0.9-0.3c0.3-0.2,0.5-0.4,0.7-0.7c0.2-0.3,0.2-0.6,0.2-1
		c0-0.3-0.1-0.7-0.2-1c-0.2-0.3-0.4-0.5-0.7-0.7s-0.6-0.3-0.9-0.3c-0.3,0-0.7,0.1-0.9,0.3c-0.3,0.2-0.5,0.4-0.7,0.7
		c-0.2,0.3-0.2,0.6-0.2,1c0,0.3,0.1,0.7,0.2,1c0.2,0.3,0.4,0.5,0.7,0.7C29.9,49.2,30.2,49.3,30.5,49.3z"/>
	<path class="st6" d="M37.4,44.5v1h-1.1v3.1c0,0.3,0,0.5,0.1,0.6c0.1,0.1,0.2,0.1,0.4,0.1c0.2,0,0.4,0,0.6-0.1v1
		c-0.4,0.1-0.6,0.2-0.9,0.2c-0.5,0-0.8-0.1-1-0.4c-0.2-0.2-0.3-0.7-0.3-1.2v-3.3h-0.8v-1h0.8v-0.9l1.1-1v1.9H37.4z"/>
	<path class="st6" d="M45.7,44.9v-0.4h1v2.2h-1c0-0.4-0.2-0.7-0.5-1s-0.6-0.3-1-0.3c-0.3,0-0.6,0.1-0.9,0.3
		c-0.3,0.2-0.5,0.4-0.6,0.7s-0.2,0.6-0.2,1c0,0.6,0.2,1.1,0.5,1.5c0.3,0.4,0.8,0.6,1.3,0.6c0.8,0,1.4-0.4,1.7-1.1l1,0.5
		c-0.5,1.2-1.5,1.7-2.7,1.7c-0.6,0-1.1-0.1-1.5-0.4c-0.5-0.3-0.8-0.6-1-1.1c-0.2-0.5-0.4-1-0.4-1.6c0-0.6,0.1-1.1,0.4-1.5
		c0.2-0.5,0.6-0.8,1-1.1c0.4-0.3,0.9-0.4,1.5-0.4C44.7,44.3,45.3,44.5,45.7,44.9z"/>
	<path class="st6" d="M53.8,47.4c0,0.6-0.1,1.1-0.4,1.6c-0.3,0.5-0.6,0.8-1.1,1.1c-0.5,0.3-1,0.4-1.5,0.4c-0.6,0-1.1-0.1-1.6-0.4
		c-0.5-0.3-0.8-0.6-1.1-1.1s-0.4-1-0.4-1.6c0-0.6,0.1-1.1,0.4-1.6s0.6-0.8,1.1-1.1c0.5-0.3,1-0.4,1.6-0.4c0.6,0,1.1,0.1,1.6,0.4
		c0.5,0.3,0.8,0.7,1.1,1.1S53.8,46.8,53.8,47.4z M50.7,49.3c0.3,0,0.7-0.1,0.9-0.3c0.3-0.2,0.5-0.4,0.7-0.7c0.2-0.3,0.2-0.6,0.2-1
		c0-0.3-0.1-0.7-0.2-1c-0.2-0.3-0.4-0.5-0.7-0.7s-0.6-0.3-0.9-0.3c-0.3,0-0.7,0.1-0.9,0.3c-0.3,0.2-0.5,0.4-0.7,0.7
		c-0.2,0.3-0.2,0.6-0.2,1c0,0.3,0.1,0.7,0.2,1c0.2,0.3,0.4,0.5,0.7,0.7C50,49.2,50.4,49.3,50.7,49.3z"/>
	<path class="st6" d="M60.2,46.4v2.9h1v1H59v-3.8c0-0.4-0.1-0.6-0.2-0.8c-0.1-0.2-0.3-0.2-0.5-0.2c-0.5,0-1.1,0.3-1.7,0.8v3.1h1v1
		h-3.2v-1h1v-3.8h-1v-1h2.2v0.7c0.7-0.5,1.4-0.8,2-0.8c0.5,0,0.9,0.2,1.2,0.5C60,45.2,60.2,45.7,60.2,46.4z"/>
	<path class="st6" d="M64.7,44.5v1h-1.1v3.1c0,0.3,0,0.5,0.1,0.6c0.1,0.1,0.2,0.1,0.4,0.1c0.2,0,0.4,0,0.6-0.1v1
		c-0.4,0.1-0.6,0.2-0.9,0.2c-0.5,0-0.8-0.1-1-0.4c-0.2-0.2-0.3-0.7-0.3-1.2v-3.3h-0.8v-1h0.8v-0.9l1.1-1v1.9H64.7z"/>
	<path class="st6" d="M71.6,47.7h-4.9c0.1,0.6,0.3,1,0.6,1.3c0.4,0.3,0.8,0.5,1.3,0.5c0.4,0,0.7-0.1,1.1-0.2
		c0.3-0.2,0.6-0.4,0.8-0.7l1,0.5c-0.3,0.5-0.7,0.9-1.2,1.1c-0.5,0.3-1.1,0.4-1.7,0.4c-0.6,0-1.2-0.1-1.7-0.4
		c-0.5-0.3-0.9-0.6-1.1-1.1c-0.3-0.5-0.4-1-0.4-1.6c0-0.6,0.1-1.1,0.4-1.6s0.6-0.8,1.1-1.1c0.5-0.3,1-0.4,1.5-0.4
		c0.6,0,1.1,0.1,1.6,0.4c0.5,0.3,0.8,0.7,1.1,1.2S71.6,47,71.6,47.7z M68.5,45.3c-0.4,0-0.8,0.1-1.1,0.4s-0.5,0.7-0.6,1.1h3.6
		c-0.1-0.5-0.3-0.9-0.7-1.1C69.4,45.4,69,45.3,68.5,45.3z"/>
	<path class="st6" d="M78,46.4v2.9h1v1h-2.1v-3.8c0-0.4-0.1-0.6-0.2-0.8c-0.1-0.2-0.3-0.2-0.5-0.2c-0.5,0-1.1,0.3-1.7,0.8v3.1h1v1
		h-3.2v-1h1v-3.8h-1v-1h2.2v0.7c0.7-0.5,1.4-0.8,2-0.8c0.5,0,0.9,0.2,1.2,0.5C77.9,45.2,78,45.7,78,46.4z"/>
	<path class="st6" d="M82.6,44.5v1h-1.1v3.1c0,0.3,0,0.5,0.1,0.6c0.1,0.1,0.2,0.1,0.4,0.1c0.2,0,0.4,0,0.6-0.1v1
		c-0.4,0.1-0.6,0.2-0.9,0.2c-0.5,0-0.8-0.1-1-0.4c-0.2-0.2-0.3-0.7-0.3-1.2v-3.3h-0.8v-1h0.8v-0.9l1.1-1v1.9H82.6z"/>
	<path class="st6" d="M88.3,44.2c0,0.4-0.1,0.8-0.3,1.2s-0.5,0.6-0.8,0.8s-0.7,0.3-1.1,0.3c-0.1,0-0.1,0-0.2,0L85.8,48h-0.6
		l-0.1-2.7c0.2,0,0.4,0.1,0.6,0.1c0.5,0,0.8-0.1,1.1-0.4s0.4-0.6,0.4-1c0-0.4-0.1-0.8-0.4-1s-0.6-0.3-0.9-0.3c-0.4,0-0.8,0.1-1,0.4
		c-0.2,0.3-0.4,0.6-0.4,1.1v0.2h-1.1c0,0,0-0.1,0-0.3c0-0.6,0.1-1,0.4-1.4s0.6-0.6,0.9-0.8c0.4-0.2,0.8-0.2,1.2-0.2
		c0.8,0,1.4,0.2,1.9,0.6S88.3,43.5,88.3,44.2z M84.8,50.3v-1.5h1.5v1.5H84.8z"/>
</g>
<g>
	<path class="st6" d="M84.6,71.2l1.1,3.5l1.1-3.5h-0.6v-1H89v1h-0.6l1.1,3.5l1.1-3.5h-0.8v-1h2.6v1h-0.8l-1.6,4.9H89l-1.3-4.2
		l-1.4,4.2h-1.1l-1.6-4.9H83v-1h2.4v1H84.6z"/>
	<path class="st6" d="M96.9,70c1.1,0,1.6,0.6,1.6,1.8v3.2h1v1h-2.1v-3.8c0-0.4-0.1-0.7-0.2-0.9S96.9,71,96.7,71
		c-0.4,0-1,0.2-1.7,0.7v3.2h1v1h-3.2v-1h1v-6.3h-1v-1H95v3.2C95.7,70.3,96.3,70,96.9,70z"/>
	<path class="st6" d="M106.3,73.1c0,0.6-0.1,1.1-0.4,1.6c-0.3,0.5-0.6,0.8-1.1,1.1c-0.5,0.3-1,0.4-1.5,0.4c-0.6,0-1.1-0.1-1.6-0.4
		c-0.5-0.3-0.8-0.6-1.1-1.1s-0.4-1-0.4-1.6c0-0.6,0.1-1.1,0.4-1.6s0.6-0.8,1.1-1.1c0.5-0.3,1-0.4,1.6-0.4c0.6,0,1.1,0.1,1.6,0.4
		c0.5,0.3,0.8,0.7,1.1,1.1S106.3,72.5,106.3,73.1z M103.2,75c0.3,0,0.7-0.1,0.9-0.3c0.3-0.2,0.5-0.4,0.7-0.7c0.2-0.3,0.2-0.6,0.2-1
		c0-0.3-0.1-0.7-0.2-1c-0.2-0.3-0.4-0.5-0.7-0.7s-0.6-0.3-0.9-0.3c-0.3,0-0.7,0.1-0.9,0.3c-0.3,0.2-0.5,0.4-0.7,0.7
		c-0.2,0.3-0.2,0.6-0.2,1c0,0.3,0.1,0.7,0.2,1c0.2,0.3,0.4,0.5,0.7,0.7C102.6,74.9,102.9,75,103.2,75z"/>
	<path class="st6" d="M112.1,69.9c0,0.4-0.1,0.8-0.3,1.2s-0.5,0.6-0.8,0.8s-0.7,0.3-1.1,0.3c-0.1,0-0.1,0-0.2,0l-0.2,1.6H109
		l-0.1-2.7c0.2,0,0.4,0.1,0.6,0.1c0.5,0,0.8-0.1,1.1-0.4s0.4-0.6,0.4-1c0-0.4-0.1-0.8-0.4-1s-0.6-0.3-0.9-0.3c-0.4,0-0.8,0.1-1,0.4
		c-0.2,0.3-0.4,0.6-0.4,1.1v0.2h-1.1c0,0,0-0.1,0-0.3c0-0.6,0.1-1,0.4-1.4s0.6-0.6,0.9-0.8c0.4-0.2,0.8-0.2,1.2-0.2
		c0.8,0,1.4,0.2,1.9,0.6S112.1,69.1,112.1,69.9z M108.6,76v-1.5h1.5V76H108.6z"/>
</g>
<g>
	<path class="st6" d="M117.3,70.8v-0.6h2.3v0.6H117.3z"/>
	<path class="st6" d="M122.4,75.1l-2.6-5.3h0.6l2.6,5.3H122.4z"/>
	<path class="st6" d="M123,76v-0.4h3.9V76H123z"/>
	<path class="st6" d="M128.3,71.9c-0.1,0.3-0.1,0.8-0.1,1.4c0,0.4,0,0.8,0.1,1.1c0.1,0.3,0.1,0.6,0.3,0.8c0.2,0.4,0.5,0.7,0.9,1v0.6
		c-0.5-0.2-1-0.6-1.4-1.2c-0.4-0.6-0.6-1.3-0.6-2.2c0-0.8,0.2-1.5,0.5-2.1c0.4-0.6,0.9-1,1.5-1.3v0.6c-0.2,0.1-0.5,0.3-0.7,0.6
		C128.5,71.3,128.4,71.6,128.3,71.9z"/>
	<path class="st6" d="M130.6,70.2c0.3,0.5,0.6,1.4,0.7,1.9l-0.5,0.2c-0.1-0.5-0.4-1.3-0.7-1.9L130.6,70.2z M135.9,70.3
		c0,0.1-0.1,0.1-0.2,0.1c-0.7,2.5-1.9,4-4.1,4.9c-0.1-0.1-0.2-0.3-0.3-0.4c2.1-0.9,3.2-2.3,3.9-4.8L135.9,70.3z M132.9,69.8
		c0.2,0.6,0.3,1.4,0.4,2l-0.5,0.1c0-0.6-0.2-1.4-0.4-2L132.9,69.8z"/>
	<path class="st6" d="M138.1,71.1c0.4,0.6,0.6,1.3,0.6,2.2c0,0.8-0.2,1.5-0.5,2.1c-0.3,0.6-0.8,1-1.5,1.4v-0.6
		c0.3-0.2,0.6-0.4,0.8-0.7s0.3-0.6,0.4-0.9c0-0.2,0.1-0.4,0.1-0.6c0-0.2,0-0.4,0-0.7c0-0.9-0.1-1.5-0.4-1.9
		c-0.3-0.4-0.5-0.7-0.9-0.9v-0.6C137.2,70.1,137.7,70.5,138.1,71.1z"/>
	<path class="st6" d="M139.2,76v-0.4h3.9V76H139.2z"/>
	<path class="st6" d="M143,75.1l2.6-5.3h0.6l-2.6,5.3H143z"/>
	<path class="st6" d="M146.4,70.8v-0.6h2.3v0.6H146.4z"/>
</g>
</svg>
