<?xml version="1.0" encoding="utf-8"?>
<!-- Generator: Adobe Illustrator 23.0.4, SVG Export Plug-In . SVG Version: 6.00 Build 0)  -->
<svg version="1.1" id="Layer_1" xmlns="http://www.w3.org/2000/svg" xmlns:xlink="http://www.w3.org/1999/xlink" x="0px" y="0px"
	 viewBox="0 0 412 117" style="enable-background:new 0 0 412 117;" xml:space="preserve">
<style type="text/css">
	.st0{fill:#263237;}
	.st1{clip-path:url(#SVGID_2_);fill:#EEF1F5;}
	.st2{fill:#EF534A;}
	.st3{fill:#EDC049;}
	.st4{fill:#97D272;}
	.st5{fill:#E5E5E5;}
	.st6{font-family:'Rockwell-Regular';}
	.st7{font-size:11.3386px;}
	.st8{fill:#4B646D;}
	.st9{font-family:'Rockwell-Bold';}
	.st10{font-size:8.5039px;}
</style>
<g>
	<rect y="20" class="st0" width="412" height="97"/>
	<g>
		<defs>
			<path id="SVGID_1_" d="M405.6,32H6.4C2.9,32,0,29.1,0,25.6V6.4C0,2.9,2.9,0,6.4,0h399.3c3.5,0,6.4,2.9,6.4,6.4v19.3
				C412,29.1,409.1,32,405.6,32z"/>
		</defs>
		<clipPath id="SVGID_2_">
			<use xlink:href="#SVGID_1_"  style="overflow:visible;"/>
		</clipPath>
		<rect x="-3.8" y="-2.5" class="st1" width="419.5" height="22"/>
	</g>
	<g>
		<circle class="st2" cx="11.5" cy="10" r="3.5"/>
		<circle class="st3" cx="20" cy="10" r="3.5"/>
		<circle class="st4" cx="28.5" cy="10" r="3.5"/>
	</g>
	<g>
		<text transform="matrix(1 0 0 1 19.3657 75.9629)" class="st5 st6 st7">/bin/bash: command not found.</text>
		<text transform="matrix(1 0 0 1 8.3657 74.9629)" class="st8 st9 st10">~</text>
	</g>
	<g>
		<text transform="matrix(1 0 0 1 19.3657 49.9629)" class="st5 st6 st7">plz show page. thnx.</text>
		<text transform="matrix(1 0 0 1 8.3657 48.9629)" class="st8 st9 st10">~</text>
	</g>
</g>
</svg>
