<?xml version="1.0" encoding="utf-8"?>
<!-- Generator: Adobe Illustrator 23.0.4, SVG Export Plug-In . SVG Version: 6.00 Build 0)  -->
<svg version="1.1" id="Layer_1" xmlns="http://www.w3.org/2000/svg" xmlns:xlink="http://www.w3.org/1999/xlink" x="0px" y="0px"
	 viewBox="0 0 680 400" style="enable-background:new 0 0 680 400;" xml:space="preserve">
<style type="text/css">
	.st0{fill:#FFFFFF;}
</style>
<g>
	<path class="st0" d="M488.8,200c0,4.4-0.2,8.9-0.5,13.3c-0.2,2.1-0.3,4.1-0.6,6.2c-0.1,0.9-0.7,5.5-0.1,0.7c0.7-5-0.2,1.1-0.4,2
		c-1.4,8.4-3.4,16.8-6.1,24.9c-1.3,4-2.9,7.9-4.3,11.9c-1.2,3.2,2.8-6.2,0.8-1.8c-0.4,0.8-0.7,1.6-1.1,2.4c-1,2.2-2.1,4.4-3.2,6.5
		c-3.9,7.6-8.3,14.9-13.3,21.9c-0.7,1-4.9,6.4-1.9,2.7c2.9-3.7-1.3,1.6-2.1,2.5c-2.8,3.4-5.7,6.6-8.7,9.7c-3,3.1-6.2,6.2-9.4,9.1
		c-1.3,1.2-2.6,2.3-4,3.4c-1.7,1.4-9.2,6.5-2,1.7c-7,4.6-13.6,9.5-20.9,13.6c-3.7,2-7.4,3.9-11.2,5.7c-1.9,0.9-8.5,3.1-0.6,0.3
		c-2.3,0.8-4.5,1.8-6.8,2.6c-8.2,3-16.7,5.3-25.2,7.1c-2.2,0.4-4.5,0.8-6.7,1.2c-0.9,0.1-1.8,0.3-2.7,0.4c7.5-1.3,4.4-0.6,2.7-0.4
		c-4.8,0.5-9.7,0.9-14.5,1.1c-9.1,0.3-18.1-0.2-27.2-1.1c-4.2-0.4,2.5,0.4,2.7,0.4c-1.1-0.1-2.3-0.3-3.4-0.5c-2-0.3-4-0.7-6-1.1
		c-4.4-0.9-8.8-1.9-13.1-3.2c-4.1-1.2-8.1-2.5-12.1-3.9c-1.9-0.7-3.7-1.4-5.6-2.1c-4.5-1.7,4.9,2.2,1.8,0.8
		c-1.4-0.7-2.8-1.2-4.2-1.9c-7.6-3.5-14.9-7.6-21.8-12.2c-1.8-1.2-3.6-2.4-5.4-3.7c-1-0.7-6.4-4.8-2.7-1.9c3.8,3-1.6-1.3-2.5-2.1
		c-1.8-1.5-3.7-3.1-5.4-4.7c-6.3-5.7-12.2-11.8-17.6-18.4c-0.8-0.9-5.1-6.3-2.1-2.5c2.9,3.7-1.2-1.6-1.9-2.7
		c-2.5-3.6-4.9-7.2-7.2-11c-2.3-3.8-4.4-7.6-6.4-11.5c-0.8-1.6-1.6-3.2-2.3-4.8c-0.6-1.2-1.1-2.4-1.6-3.6c-1.9-4.1,2.3,5.8,0.5,1.2
		c-3.1-7.9-5.7-15.9-7.7-24.2c-1-4.2-1.9-8.4-2.5-12.6c-0.2-1.1-0.5-2.3-0.5-3.4c0,0.2,0.8,6.9,0.4,2.7c-0.3-2.5-0.5-5-0.7-7.6
		c-0.7-9.1-0.7-18.2,0.1-27.2c0.2-2.3,0.4-4.6,0.7-6.9c0.2-1.7,0.9-4.8-0.4,2.7c0.2-0.9,0.3-1.8,0.4-2.7c0.7-4.7,1.7-9.4,2.8-14
		c2.1-8.5,5.4-16.5,8.1-24.8c-0.1,0.2-2.7,6.1-1,2.4c0.5-1,0.9-2,1.4-3c0.8-1.8,1.7-3.6,2.6-5.4c2-3.9,4.1-7.8,6.4-11.5
		c2.1-3.6,4.4-7,6.8-10.4c1.1-1.6,2.4-3.1,3.5-4.8c-4.8,7.2,0.3-0.3,1.7-2c5.3-6.3,11.1-12.3,17.3-17.8c2.9-2.6,6-5,9-7.5
		c-6.6,5.5-0.6,0.5,1.1-0.7c2-1.4,3.9-2.7,6-4.1c7.2-4.7,14.7-8.8,22.5-12.4c0.8-0.4,1.6-0.7,2.4-1.1c4.4-2-5,1.9-1.8,0.8
		c1.9-0.7,3.7-1.5,5.6-2.2c4.2-1.5,8.4-2.9,12.7-4.1c4.3-1.2,8.7-2.3,13.1-3.2c1.8-0.4,3.6-0.7,5.4-1c1.1-0.2,2.3-0.3,3.4-0.5
		c2-0.3,0.9-0.1-3.4,0.4c0.9-0.1,1.8-0.2,2.7-0.3c8.8-1,17.7-1.3,26.5-0.9c4.4,0.2,8.8,0.5,13.1,1c2,0.2,5.4,1.2-2-0.3
		c0.9,0.2,1.8,0.3,2.7,0.4c2.5,0.4,4.9,0.8,7.4,1.3c8.6,1.7,17,4.1,25.2,7.1c2.1,0.8,4.1,1.7,6.2,2.4c-0.2-0.1-6.1-2.7-2.4-1
		c0.8,0.4,1.6,0.7,2.4,1.1c4,1.8,7.9,3.8,11.8,5.9c3.8,2.1,7.6,4.4,11.3,6.8c1.5,1,2.9,1.9,4.3,2.9c1.7,1.2,8.9,7.1,2.2,1.5
		c6.4,5.4,12.7,10.6,18.4,16.6c2.9,3,5.6,6.1,8.3,9.2c1.3,1.5,2.4,3.1,3.7,4.6c-5.6-6.7,0.3,0.5,1.5,2.2c4.8,6.8,9.1,14,12.8,21.4
		c1,2,1.9,4,2.9,6c0.4,0.8,0.7,1.6,1.1,2.4c1.7,3.7-1-2.2-1-2.4c1.5,4.4,3.4,8.7,4.8,13.1c2.7,8.4,4.7,16.9,6.1,25.6
		c0.1,0.9,0.2,1.8,0.4,2.7c-1.5-7.5-0.5-4-0.3-2c0.2,2.1,0.4,4.1,0.6,6.2C488.6,190.7,488.8,195.3,488.8,200
		c0.1,13.3,11.7,26.1,25.5,25.5c13.8-0.6,25.6-11.2,25.5-25.5c-0.2-40.7-12.5-81.8-36.4-114.9C479,51.2,446,26,406.8,11.5
		C330-16.7,238.3,8.2,186.5,71.6c-26.9,32.9-42.8,71.9-46.2,114.4c-3.2,40.4,7,82.2,27.9,116.8c20.4,33.8,51.3,62.3,87.4,78.5
		c39.6,17.7,82.6,22.9,125.3,14.4c78.8-15.7,144-83,156-162.7c1.7-11,2.8-21.9,2.9-33.1c0.1-13.3-11.8-26.1-25.5-25.5
		C500.4,175.1,488.9,185.7,488.8,200z"/>
	<g>
		<path class="st0" d="M613.3,324.5c29.4-22.9,53.8-55,62.6-91.7c8.9-37.5,1.8-77.2-18.9-109.7c-11.8-18.5-26.8-34.7-44.2-48
			c-5.6-4.3-10.6-7.5-18-7.5c-6.3,0-13.7,2.8-18,7.5c-8.4,9.1-11.3,27.4,0,36.1c6.7,5.2,13.2,10.8,19.2,16.8
			c2.8,2.8,5.5,5.7,8.1,8.8c1.3,1.6,2.6,3.4,4,4.8c-0.3-0.3-3.7-4.9-1.2-1.5c0.6,0.8,1.2,1.7,1.8,2.5c4.7,6.5,8.8,13.5,12.2,20.7
			c0.4,0.9,3,6.5,1.1,2.4c-1.9-4.1,0.5,1.4,0.9,2.4c1.4,3.9,2.6,7.9,3.6,11.9c0.9,3.6,1.3,7.2,2.1,10.7c-0.1-0.3-0.7-6.7-0.4-2.4
			c0.1,0.7,0.1,1.5,0.2,2.2c0.2,2.2,0.3,4.4,0.4,6.6c0.1,3.7,0,7.4-0.3,11c-0.1,1.7-0.5,3.4-0.5,5.1c-0.1-6.1,0.7-4.5,0.3-2.5
			c-0.2,1.2-0.4,2.4-0.6,3.6c-0.7,3.6-1.5,7.1-2.6,10.6c-1.1,3.6-3.1,7.4-3.8,11c1-5,1.8-4.1,0.9-2c-0.4,0.9-0.8,1.8-1.2,2.7
			c-0.7,1.6-1.5,3.1-2.3,4.6c-1.8,3.5-3.9,7-6,10.3c-1.2,1.9-2.5,3.8-3.8,5.7c-0.6,0.8-1.2,1.7-1.8,2.5c-2.7,3.7,2.7-3.3,0.7-0.9
			c-2.8,3.4-5.7,6.8-8.7,10.1c-6.7,7.1-14.1,13.6-21.8,19.6c-4.8,3.7-7.5,12.3-7.5,18c0,6.3,2.8,13.7,7.5,18
			c4.9,4.5,11.2,7.8,18,7.5C602.5,331.6,607.6,328.9,613.3,324.5L613.3,324.5z"/>
	</g>
	<g>
		<path class="st0" d="M66.8,75.1c-29.6,22.9-54.2,55.1-63,92c-8.9,37.4-1.9,77.1,18.7,109.5c11.7,18.4,26.7,34.6,43.8,47.9
			c5.6,4.3,10.6,7.5,18,7.5c6.3,0,13.7-2.8,18-7.5c8.4-9.1,11.3-27.3,0-36.1c-6.7-5.2-13.1-10.7-19-16.8c-2.8-2.8-5.5-5.7-8-8.7
			c-1.3-1.6-2.6-3.3-4-4.8c0.3,0.3,3.7,4.9,1.2,1.5c-0.6-0.8-1.2-1.6-1.8-2.5c-4.6-6.5-8.7-13.4-12.1-20.6c-0.4-0.9-3-6.4-1.1-2.3
			c1.9,4.1-0.5-1.4-0.8-2.4c-1.4-3.9-2.6-7.8-3.6-11.8c-0.9-3.5-1.3-7.1-2.1-10.7c0.1,0.3,0.7,6.7,0.4,2.4c-0.1-0.7-0.1-1.5-0.2-2.2
			c-0.2-2.2-0.3-4.4-0.4-6.6c-0.1-3.7,0-7.4,0.3-11.1c0.1-1.7,0.5-3.4,0.5-5.1c0.1,6.1-0.7,4.5-0.3,2.4c0.2-1.2,0.4-2.4,0.6-3.6
			c0.7-3.6,1.5-7.1,2.6-10.6c1.1-3.6,3.1-7.4,3.9-11.1c-1.1,5.1-1.8,4-0.8,2c0.4-0.9,0.8-1.8,1.2-2.7c0.7-1.6,1.5-3.1,2.3-4.7
			c1.9-3.6,3.9-7,6.1-10.4c1.2-1.9,2.5-3.8,3.9-5.7c0.6-0.8,1.2-1.7,1.8-2.5c2.7-3.7-2.7,3.3-0.7,0.9c2.9-3.4,5.7-6.8,8.8-10.1
			c6.8-7.2,14.2-13.7,22-19.7c4.8-3.7,7.5-12.3,7.5-18c0-6.3-2.8-13.7-7.5-18c-4.9-4.5-11.2-7.8-18-7.5
			C77.6,67.9,72.5,70.7,66.8,75.1L66.8,75.1z"/>
	</g>
</g>
</svg>
